<?xml version="1.0" encoding="UTF-8" standalone="no"?>
<!DOCTYPE svg PUBLIC "-//W3C//DTD SVG 1.1//EN"
 "http://www.w3.org/Graphics/SVG/1.1/DTD/svg11.dtd">
<!-- Generated by graphviz version 14.1.2 (20260124.0452)
 -->
<!-- Pages: 1 -->
<svg width="442pt" height="575pt"
 viewBox="0.00 0.00 442.00 575.00" xmlns="http://www.w3.org/2000/svg" xmlns:xlink="http://www.w3.org/1999/xlink">
<g id="graph0" class="graph" transform="scale(1 1) rotate(0) translate(4 571)">
<polygon fill="white" stroke="none" points="-4,4 -4,-571 437.62,-571 437.62,4 -4,4"/>
<!-- 7199c589&#45;e8f6&#45;4203&#45;8a22&#45;89b9053f8ff0 -->
<g id="node1" class="node">
<title>7199c589&#45;e8f6&#45;4203&#45;8a22&#45;89b9053f8ff0</title>
<polygon fill="#5f9f9f" stroke="black" points="236.25,-390 137.75,-390 137.75,-354 236.25,-354 236.25,-390"/>
<text xml:space="preserve" text-anchor="middle" x="187" y="-366.95" font-family="Times New Roman,serif" font-size="14.00" fill="#000000">Active (38716)</text>
</g>
<!-- 7199c589&#45;e8f6&#45;4203&#45;8a22&#45;89b9053f8ff0&#45;&gt;7199c589&#45;e8f6&#45;4203&#45;8a22&#45;89b9053f8ff0 -->
<g id="edge1" class="edge">
<title>7199c589&#45;e8f6&#45;4203&#45;8a22&#45;89b9053f8ff0&#45;&gt;7199c589&#45;e8f6&#45;4203&#45;8a22&#45;89b9053f8ff0</title>
<path fill="none" stroke="#000000" stroke-width="1.91" d="M236.56,-380.01C246.85,-379.16 254.25,-376.49 254.25,-372 254.25,-369.68 252.28,-367.85 248.97,-366.5"/>
<polygon fill="#000000" stroke="#000000" stroke-width="1.91" points="249.89,-363.12 239.4,-364.57 248.5,-369.98 249.89,-363.12"/>
<text xml:space="preserve" text-anchor="middle" x="271.12" y="-366.95" font-family="Times New Roman,serif" font-size="14.00" fill="#000000">22728</text>
</g>
<!-- 4555d787&#45;b260&#45;4dee&#45;aa38&#45;cb05ab849e59 -->
<g id="node2" class="node">
<title>4555d787&#45;b260&#45;4dee&#45;aa38&#45;cb05ab849e59</title>
<polygon fill="#5ba3a3" stroke="black" points="183.38,-213 70.62,-213 70.62,-177 183.38,-177 183.38,-213"/>
<text xml:space="preserve" text-anchor="middle" x="127" y="-189.95" font-family="Times New Roman,serif" font-size="14.00" fill="#000000">Resolved (25751)</text>
</g>
<!-- 7199c589&#45;e8f6&#45;4203&#45;8a22&#45;89b9053f8ff0&#45;&gt;4555d787&#45;b260&#45;4dee&#45;aa38&#45;cb05ab849e59 -->
<g id="edge2" class="edge">
<title>7199c589&#45;e8f6&#45;4203&#45;8a22&#45;89b9053f8ff0&#45;&gt;4555d787&#45;b260&#45;4dee&#45;aa38&#45;cb05ab849e59</title>
<path fill="none" stroke="#000000" stroke-width="1.85" d="M195.77,-353.8C205.45,-332.26 218.07,-294.66 205,-265.5 196.98,-247.62 181.83,-232.45 167.01,-220.89"/>
<polygon fill="#000000" stroke="#000000" stroke-width="1.85" points="169.28,-218.21 159.15,-215.13 165.14,-223.86 169.28,-218.21"/>
<text xml:space="preserve" text-anchor="middle" x="227.48" y="-278.45" font-family="Times New Roman,serif" font-size="14.00" fill="#000000">12048</text>
</g>
<!-- d6a03b82&#45;2d12&#45;4bb8&#45;9804&#45;fb82cce21006 -->
<g id="node3" class="node">
<title>d6a03b82&#45;2d12&#45;4bb8&#45;9804&#45;fb82cce21006</title>
<polygon fill="#0ef0f0" stroke="black" points="171.38,-301.5 82.62,-301.5 82.62,-265.5 171.38,-265.5 171.38,-301.5"/>
<text xml:space="preserve" text-anchor="middle" x="127" y="-278.45" font-family="Times New Roman,serif" font-size="14.00" fill="#000000">Unknown (5)</text>
</g>
<!-- 7199c589&#45;e8f6&#45;4203&#45;8a22&#45;89b9053f8ff0&#45;&gt;d6a03b82&#45;2d12&#45;4bb8&#45;9804&#45;fb82cce21006 -->
<g id="edge3" class="edge">
<title>7199c589&#45;e8f6&#45;4203&#45;8a22&#45;89b9053f8ff0&#45;&gt;d6a03b82&#45;2d12&#45;4bb8&#45;9804&#45;fb82cce21006</title>
<path fill="none" stroke="#000000" stroke-width="1.06" d="M175.15,-353.91C166.65,-341.67 155.06,-324.95 145.37,-310.99"/>
<polygon fill="#000000" stroke="#000000" stroke-width="1.06" points="148.53,-309.39 139.95,-303.17 142.78,-313.38 148.53,-309.39"/>
<text xml:space="preserve" text-anchor="middle" x="165.75" y="-322.7" font-family="Times New Roman,serif" font-size="14.00" fill="#000000">1</text>
</g>
<!-- 99608482&#45;fe90&#45;44cc&#45;ba4e&#45;acc6d049696e -->
<g id="node4" class="node">
<title>99608482&#45;fe90&#45;44cc&#45;ba4e&#45;acc6d049696e</title>
<polygon fill="#57a7a7" stroke="black" points="388.62,-301.5 283.38,-301.5 283.38,-265.5 388.62,-265.5 388.62,-301.5"/>
<text xml:space="preserve" text-anchor="middle" x="336" y="-278.45" font-family="Times New Roman,serif" font-size="14.00" fill="#000000">Waiting (15848)</text>
</g>
<!-- 7199c589&#45;e8f6&#45;4203&#45;8a22&#45;89b9053f8ff0&#45;&gt;99608482&#45;fe90&#45;44cc&#45;ba4e&#45;acc6d049696e -->
<g id="edge4" class="edge">
<title>7199c589&#45;e8f6&#45;4203&#45;8a22&#45;89b9053f8ff0&#45;&gt;99608482&#45;fe90&#45;44cc&#45;ba4e&#45;acc6d049696e</title>
<path fill="none" stroke="#000000" stroke-width="1.75" d="M216.79,-353.7C239.26,-340.66 270.32,-322.63 295.11,-308.24"/>
<polygon fill="#000000" stroke="#000000" stroke-width="1.75" points="296.82,-311.29 303.71,-303.25 293.3,-305.24 296.82,-311.29"/>
<text xml:space="preserve" text-anchor="middle" x="288.35" y="-322.7" font-family="Times New Roman,serif" font-size="14.00" fill="#000000">3938</text>
</g>
<!-- 4cd569b9&#45;da3b&#45;43f9&#45;8073&#45;865a644416d6 -->
<g id="node6" class="node">
<title>4cd569b9&#45;da3b&#45;43f9&#45;8073&#45;865a644416d6</title>
<polygon fill="#5ba3a3" stroke="black" points="177,-124.5 77,-124.5 77,-88.5 177,-88.5 177,-124.5"/>
<text xml:space="preserve" text-anchor="middle" x="127" y="-101.45" font-family="Times New Roman,serif" font-size="14.00" fill="#000000">Closed (24985)</text>
</g>
<!-- 4555d787&#45;b260&#45;4dee&#45;aa38&#45;cb05ab849e59&#45;&gt;4cd569b9&#45;da3b&#45;43f9&#45;8073&#45;865a644416d6 -->
<g id="edge5" class="edge">
<title>4555d787&#45;b260&#45;4dee&#45;aa38&#45;cb05ab849e59&#45;&gt;4cd569b9&#45;da3b&#45;43f9&#45;8073&#45;865a644416d6</title>
<path fill="none" stroke="#000000" stroke-width="1.92" d="M127,-176.91C127,-165.73 127,-150.81 127,-137.67"/>
<polygon fill="#000000" stroke="#000000" stroke-width="1.92" points="130.5,-137.76 127,-127.76 123.5,-137.76 130.5,-137.76"/>
<text xml:space="preserve" text-anchor="middle" x="143.88" y="-145.7" font-family="Times New Roman,serif" font-size="14.00" fill="#000000">24916</text>
</g>
<!-- d6a03b82&#45;2d12&#45;4bb8&#45;9804&#45;fb82cce21006&#45;&gt;4555d787&#45;b260&#45;4dee&#45;aa38&#45;cb05ab849e59 -->
<g id="edge6" class="edge">
<title>d6a03b82&#45;2d12&#45;4bb8&#45;9804&#45;fb82cce21006&#45;&gt;4555d787&#45;b260&#45;4dee&#45;aa38&#45;cb05ab849e59</title>
<path fill="none" stroke="#000000" stroke-width="1.1" d="M127,-265.41C127,-253.88 127,-238.36 127,-224.93"/>
<polygon fill="#000000" stroke="#000000" stroke-width="1.1" points="130.5,-225.01 127,-215.01 123.5,-225.01 130.5,-225.01"/>
<text xml:space="preserve" text-anchor="middle" x="130.38" y="-234.2" font-family="Times New Roman,serif" font-size="14.00" fill="#000000">2</text>
</g>
<!-- d6a03b82&#45;2d12&#45;4bb8&#45;9804&#45;fb82cce21006&#45;&gt;d6a03b82&#45;2d12&#45;4bb8&#45;9804&#45;fb82cce21006 -->
<g id="edge7" class="edge">
<title>d6a03b82&#45;2d12&#45;4bb8&#45;9804&#45;fb82cce21006&#45;&gt;d6a03b82&#45;2d12&#45;4bb8&#45;9804&#45;fb82cce21006</title>
<path fill="none" stroke="#000000" stroke-width="1.13" d="M171.86,-291.59C181.97,-290.87 189.38,-288.17 189.38,-283.5 189.38,-280.87 187.03,-278.87 183.18,-277.49"/>
<polygon fill="#000000" stroke="#000000" stroke-width="1.13" points="184,-274.09 173.53,-275.71 182.73,-280.97 184,-274.09"/>
<text xml:space="preserve" text-anchor="middle" x="192.75" y="-278.45" font-family="Times New Roman,serif" font-size="14.00" fill="#000000">3</text>
</g>
<!-- 99608482&#45;fe90&#45;44cc&#45;ba4e&#45;acc6d049696e&#45;&gt;4555d787&#45;b260&#45;4dee&#45;aa38&#45;cb05ab849e59 -->
<g id="edge8" class="edge">
<title>99608482&#45;fe90&#45;44cc&#45;ba4e&#45;acc6d049696e&#45;&gt;4555d787&#45;b260&#45;4dee&#45;aa38&#45;cb05ab849e59</title>
<path fill="none" stroke="#000000" stroke-width="1.77" d="M309.28,-265C291.81,-254.13 268.19,-240.46 246,-231 230.06,-224.21 212.38,-218.22 195.63,-213.22"/>
<polygon fill="#000000" stroke="#000000" stroke-width="1.77" points="196.8,-209.91 186.22,-210.49 194.85,-216.63 196.8,-209.91"/>
<text xml:space="preserve" text-anchor="middle" x="292.7" y="-234.2" font-family="Times New Roman,serif" font-size="14.00" fill="#000000">5020</text>
</g>
<!-- 99608482&#45;fe90&#45;44cc&#45;ba4e&#45;acc6d049696e&#45;&gt;99608482&#45;fe90&#45;44cc&#45;ba4e&#45;acc6d049696e -->
<g id="edge9" class="edge">
<title>99608482&#45;fe90&#45;44cc&#45;ba4e&#45;acc6d049696e&#45;&gt;99608482&#45;fe90&#45;44cc&#45;ba4e&#45;acc6d049696e</title>
<path fill="none" stroke="#000000" stroke-width="1.83" d="M388.98,-291.43C399.3,-290.51 406.62,-287.86 406.62,-283.5 406.62,-281.25 404.68,-279.46 401.37,-278.12"/>
<polygon fill="#000000" stroke="#000000" stroke-width="1.83" points="402.19,-274.72 391.69,-276.13 400.78,-281.57 402.19,-274.72"/>
<text xml:space="preserve" text-anchor="middle" x="420.12" y="-278.45" font-family="Times New Roman,serif" font-size="14.00" fill="#000000">9607</text>
</g>
<!-- 7b565332&#45;f29f&#45;4710&#45;a4a5&#45;819d8155c1d1 -->
<g id="node5" class="node">
<title>7b565332&#45;f29f&#45;4710&#45;a4a5&#45;819d8155c1d1</title>
<polygon fill="#5ea0a0" stroke="black" points="231,-478.5 143,-478.5 143,-442.5 231,-442.5 231,-478.5"/>
<text xml:space="preserve" text-anchor="middle" x="187" y="-455.45" font-family="Times New Roman,serif" font-size="14.00" fill="#000000">New (36407)</text>
</g>
<!-- 7b565332&#45;f29f&#45;4710&#45;a4a5&#45;819d8155c1d1&#45;&gt;7199c589&#45;e8f6&#45;4203&#45;8a22&#45;89b9053f8ff0 -->
<g id="edge10" class="edge">
<title>7b565332&#45;f29f&#45;4710&#45;a4a5&#45;819d8155c1d1&#45;&gt;7199c589&#45;e8f6&#45;4203&#45;8a22&#45;89b9053f8ff0</title>
<path fill="none" stroke="#000000" stroke-width="1.82" d="M187,-442.41C187,-431.11 187,-416 187,-402.75"/>
<polygon fill="#000000" stroke="#000000" stroke-width="1.82" points="190.5,-403.1 187,-393.1 183.5,-403.1 190.5,-403.1"/>
<text xml:space="preserve" text-anchor="middle" x="200.5" y="-411.2" font-family="Times New Roman,serif" font-size="14.00" fill="#000000">7936</text>
</g>
<!-- 7b565332&#45;f29f&#45;4710&#45;a4a5&#45;819d8155c1d1&#45;&gt;4555d787&#45;b260&#45;4dee&#45;aa38&#45;cb05ab849e59 -->
<g id="edge12" class="edge">
<title>7b565332&#45;f29f&#45;4710&#45;a4a5&#45;819d8155c1d1&#45;&gt;4555d787&#45;b260&#45;4dee&#45;aa38&#45;cb05ab849e59</title>
<path fill="none" stroke="#000000" stroke-width="1.8" d="M150.22,-442.18C142.22,-437.26 134.29,-431.34 128,-424.5 87.57,-380.57 83.18,-360.49 74,-301.5 71.54,-285.69 68.88,-280.66 74,-265.5 79.31,-249.78 89.76,-234.8 99.98,-222.81"/>
<polygon fill="#000000" stroke="#000000" stroke-width="1.8" points="102.48,-225.27 106.58,-215.5 97.28,-220.58 102.48,-225.27"/>
<text xml:space="preserve" text-anchor="middle" x="93.38" y="-322.7" font-family="Times New Roman,serif" font-size="14.00" fill="#000000">6347</text>
</g>
<!-- 7b565332&#45;f29f&#45;4710&#45;a4a5&#45;819d8155c1d1&#45;&gt;d6a03b82&#45;2d12&#45;4bb8&#45;9804&#45;fb82cce21006 -->
<g id="edge13" class="edge">
<title>7b565332&#45;f29f&#45;4710&#45;a4a5&#45;819d8155c1d1&#45;&gt;d6a03b82&#45;2d12&#45;4bb8&#45;9804&#45;fb82cce21006</title>
<path fill="none" stroke="#000000" stroke-width="1.06" d="M163.4,-442.04C148.49,-429.45 130.53,-411.02 122.25,-390 112.5,-365.24 115.33,-334.65 119.61,-312.79"/>
<polygon fill="#000000" stroke="#000000" stroke-width="1.06" points="122.99,-313.73 121.72,-303.22 116.15,-312.23 122.99,-313.73"/>
<text xml:space="preserve" text-anchor="middle" x="125.62" y="-366.95" font-family="Times New Roman,serif" font-size="14.00" fill="#000000">1</text>
</g>
<!-- 7b565332&#45;f29f&#45;4710&#45;a4a5&#45;819d8155c1d1&#45;&gt;99608482&#45;fe90&#45;44cc&#45;ba4e&#45;acc6d049696e -->
<g id="edge14" class="edge">
<title>7b565332&#45;f29f&#45;4710&#45;a4a5&#45;819d8155c1d1&#45;&gt;99608482&#45;fe90&#45;44cc&#45;ba4e&#45;acc6d049696e</title>
<path fill="none" stroke="#000000" stroke-width="1.7" d="M227.55,-442.01C250.66,-430.25 278.59,-412.73 297,-390 314.88,-367.93 325.03,-336.88 330.46,-314.18"/>
<polygon fill="#000000" stroke="#000000" stroke-width="1.7" points="333.88,-314.93 332.59,-304.42 327.04,-313.44 333.88,-314.93"/>
<text xml:space="preserve" text-anchor="middle" x="330.88" y="-366.95" font-family="Times New Roman,serif" font-size="14.00" fill="#000000">2102</text>
</g>
<!-- 7b565332&#45;f29f&#45;4710&#45;a4a5&#45;819d8155c1d1&#45;&gt;7b565332&#45;f29f&#45;4710&#45;a4a5&#45;819d8155c1d1 -->
<g id="edge11" class="edge">
<title>7b565332&#45;f29f&#45;4710&#45;a4a5&#45;819d8155c1d1&#45;&gt;7b565332&#45;f29f&#45;4710&#45;a4a5&#45;819d8155c1d1</title>
<path fill="none" stroke="#000000" stroke-width="1.9" d="M231.31,-468.61C241.51,-467.91 249,-465.21 249,-460.5 249,-458.07 247.01,-456.18 243.68,-454.81"/>
<polygon fill="#000000" stroke="#000000" stroke-width="1.9" points="244.62,-451.43 234.13,-452.94 243.27,-458.3 244.62,-451.43"/>
<text xml:space="preserve" text-anchor="middle" x="265.88" y="-455.45" font-family="Times New Roman,serif" font-size="14.00" fill="#000000">20009</text>
</g>
<!-- end_0 -->
<g id="node8" class="node">
<title>end_0</title>
<ellipse fill="#ffa500" stroke="#ffa500" cx="127" cy="-18" rx="27" ry="18"/>
<text xml:space="preserve" text-anchor="middle" x="127" y="-15.28" font-family="Times New Roman,serif" font-size="8.00" fill="#ffa500">@@E</text>
</g>
<!-- 4cd569b9&#45;da3b&#45;43f9&#45;8073&#45;865a644416d6&#45;&gt;end_0 -->
<g id="edge19" class="edge">
<title>4cd569b9&#45;da3b&#45;43f9&#45;8073&#45;865a644416d6&#45;&gt;end_0</title>
<path fill="none" stroke="#000000" stroke-width="1.92" d="M127,-88.41C127,-77.23 127,-62.31 127,-49.17"/>
<polygon fill="#000000" stroke="#000000" stroke-width="1.92" points="130.5,-49.26 127,-39.26 123.5,-49.26 130.5,-49.26"/>
<text xml:space="preserve" text-anchor="middle" x="143.88" y="-57.2" font-family="Times New Roman,serif" font-size="14.00" fill="#000000">24918</text>
</g>
<!-- start_0 -->
<g id="node7" class="node">
<title>start_0</title>
<ellipse fill="#32cd32" stroke="#000000" cx="289" cy="-549" rx="27" ry="18"/>
<text xml:space="preserve" text-anchor="middle" x="289" y="-546.27" font-family="Times New Roman,serif" font-size="8.00" fill="#32cd32">@@S</text>
</g>
<!-- start_0&#45;&gt;7199c589&#45;e8f6&#45;4203&#45;8a22&#45;89b9053f8ff0 -->
<g id="edge16" class="edge">
<title>start_0&#45;&gt;7199c589&#45;e8f6&#45;4203&#45;8a22&#45;89b9053f8ff0</title>
<path fill="none" stroke="#000000" stroke-width="1.8" d="M294.37,-531.11C300.28,-509.23 307.09,-470.59 292,-442.5 281.32,-422.62 262.18,-407.47 243.13,-396.47"/>
<polygon fill="#000000" stroke="#000000" stroke-width="1.8" points="244.86,-393.42 234.39,-391.76 241.54,-399.59 244.86,-393.42"/>
<text xml:space="preserve" text-anchor="middle" x="314.45" y="-455.45" font-family="Times New Roman,serif" font-size="14.00" fill="#000000">6503</text>
</g>
<!-- start_0&#45;&gt;4555d787&#45;b260&#45;4dee&#45;aa38&#45;cb05ab849e59 -->
<g id="edge17" class="edge">
<title>start_0&#45;&gt;4555d787&#45;b260&#45;4dee&#45;aa38&#45;cb05ab849e59</title>
<path fill="none" stroke="#000000" stroke-width="1.68" d="M262.07,-545.74C190.33,-538.97 0,-515.9 0,-461.5 0,-461.5 0,-461.5 0,-282.5 0,-250.09 28.6,-228.96 58.65,-215.71"/>
<polygon fill="#000000" stroke="#000000" stroke-width="1.68" points="59.89,-218.98 67.83,-211.97 57.25,-212.5 59.89,-218.98"/>
<text xml:space="preserve" text-anchor="middle" x="13.5" y="-366.95" font-family="Times New Roman,serif" font-size="14.00" fill="#000000">1819</text>
</g>
<!-- start_0&#45;&gt;99608482&#45;fe90&#45;44cc&#45;ba4e&#45;acc6d049696e -->
<g id="edge18" class="edge">
<title>start_0&#45;&gt;99608482&#45;fe90&#45;44cc&#45;ba4e&#45;acc6d049696e</title>
<path fill="none" stroke="#000000" stroke-width="1.48" d="M301.26,-532.75C311.35,-519.31 325.06,-498.77 332,-478.5 350.07,-425.72 352.76,-409.58 348,-354 346.86,-340.69 344.51,-326.1 342.19,-313.74"/>
<polygon fill="#000000" stroke="#000000" stroke-width="1.48" points="345.64,-313.15 340.27,-304.02 338.78,-314.5 345.64,-313.15"/>
<text xml:space="preserve" text-anchor="middle" x="359.63" y="-411.2" font-family="Times New Roman,serif" font-size="14.00" fill="#000000">199</text>
</g>
<!-- start_0&#45;&gt;7b565332&#45;f29f&#45;4710&#45;a4a5&#45;819d8155c1d1 -->
<g id="edge15" class="edge">
<title>start_0&#45;&gt;7b565332&#45;f29f&#45;4710&#45;a4a5&#45;819d8155c1d1</title>
<path fill="none" stroke="#000000" stroke-width="1.88" d="M273.06,-534.48C258.12,-521.82 235.4,-502.55 217.06,-486.99"/>
<polygon fill="#000000" stroke="#000000" stroke-width="1.88" points="219.46,-484.44 209.57,-480.64 214.93,-489.78 219.46,-484.44"/>
<text xml:space="preserve" text-anchor="middle" x="264.01" y="-499.7" font-family="Times New Roman,serif" font-size="14.00" fill="#000000">16397</text>
</g>
</g>
</svg>
