<?xml version="1.0" encoding="UTF-8" standalone="no"?>
<!DOCTYPE svg PUBLIC "-//W3C//DTD SVG 1.1//EN"
 "http://www.w3.org/Graphics/SVG/1.1/DTD/svg11.dtd">
<!-- Generated by graphviz version 14.1.2 (20260124.0452)
 -->
<!-- Pages: 1 -->
<svg width="956pt" height="534pt"
 viewBox="0.00 0.00 956.00 534.00" xmlns="http://www.w3.org/2000/svg" xmlns:xlink="http://www.w3.org/1999/xlink">
<g id="graph0" class="graph" transform="scale(1 1) rotate(0) translate(4 530.42)">
<polygon fill="white" stroke="none" points="-4,4 -4,-530.42 951.94,-530.42 951.94,4 -4,4"/>
<!-- &#45;4589619670280652541 -->
<g id="node1" class="node">
<title>&#45;4589619670280652541</title>
<polygon fill="#9b9bff" stroke="black" points="213.41,-286 125.41,-286 125.41,-250 213.41,-250 213.41,-286"/>
<text xml:space="preserve" text-anchor="middle" x="169.41" y="-263.73" font-family="Times New Roman,serif" font-size="12.00">Active (38716)</text>
</g>
<!-- &#45;4589619670280652541&#45;&gt;&#45;4589619670280652541 -->
<g id="edge1" class="edge">
<title>&#45;4589619670280652541&#45;&gt;&#45;4589619670280652541</title>
<path fill="none" stroke="black" stroke-width="2.46" d="M156.02,-286.15C153.96,-295.54 158.42,-304 169.41,-304 174.38,-304 178.02,-302.26 180.32,-299.49"/>
<polygon fill="black" stroke="black" stroke-width="2.46" points="183.73,-300.28 182.12,-289.81 176.85,-299.01 183.73,-300.28"/>
<text xml:space="preserve" text-anchor="middle" x="169.41" y="-306.85" font-family="Times New Roman,serif" font-size="12.00">22728</text>
</g>
<!-- &#45;6685622907924920562 -->
<g id="node3" class="node">
<title>&#45;6685622907924920562</title>
<polygon fill="#bcbcff" stroke="black" points="380.16,-249 279.41,-249 279.41,-213 380.16,-213 380.16,-249"/>
<text xml:space="preserve" text-anchor="middle" x="329.78" y="-226.72" font-family="Times New Roman,serif" font-size="12.00">Resolved (25751)</text>
</g>
<!-- &#45;4589619670280652541&#45;&gt;&#45;6685622907924920562 -->
<g id="edge2" class="edge">
<title>&#45;4589619670280652541&#45;&gt;&#45;6685622907924920562</title>
<path fill="none" stroke="black" stroke-width="1.77" d="M194.56,-249.63C205.26,-242.59 218.35,-235.39 231.41,-231.75 242.53,-228.65 254.65,-227.15 266.44,-226.62"/>
<polygon fill="black" stroke="black" stroke-width="1.77" points="266.42,-230.12 276.36,-226.44 266.3,-223.12 266.42,-230.12"/>
<text xml:space="preserve" text-anchor="middle" x="246.41" y="-234.6" font-family="Times New Roman,serif" font-size="12.00">12048</text>
</g>
<!-- 4590870561877669275 -->
<g id="node4" class="node">
<title>4590870561877669275</title>
<polygon fill="#d6d6ff" stroke="black" points="679.16,-144 585.91,-144 585.91,-108 679.16,-108 679.16,-144"/>
<text xml:space="preserve" text-anchor="middle" x="632.53" y="-121.72" font-family="Times New Roman,serif" font-size="12.00">Waiting (15848)</text>
</g>
<!-- &#45;4589619670280652541&#45;&gt;4590870561877669275 -->
<g id="edge3" class="edge">
<title>&#45;4589619670280652541&#45;&gt;4590870561877669275</title>
<path fill="none" stroke="black" stroke-width="1.25" d="M194.6,-249.81C201.81,-243.13 208.97,-234.98 213.41,-226 228.09,-196.3 208.74,-102.17 231.41,-78 282.59,-23.42 500.33,-33.88 567.91,-66 583.86,-73.58 598.46,-86.67 609.63,-98.68"/>
<polygon fill="black" stroke="black" stroke-width="1.25" points="606.97,-100.96 616.22,-106.14 612.22,-96.33 606.97,-100.96"/>
<text xml:space="preserve" text-anchor="middle" x="410.16" y="-42.75" font-family="Times New Roman,serif" font-size="12.00">3938</text>
</g>
<!-- &#45;2237771978995521399 -->
<g id="node5" class="node">
<title>&#45;2237771978995521399</title>
<polygon fill="#bebeff" stroke="black" points="810.66,-383 721.16,-383 721.16,-347 810.66,-347 810.66,-383"/>
<text xml:space="preserve" text-anchor="middle" x="765.91" y="-360.73" font-family="Times New Roman,serif" font-size="12.00">Closed (24985)</text>
</g>
<!-- &#45;4589619670280652541&#45;&gt;&#45;2237771978995521399 -->
<g id="edge15" class="edge">
<title>&#45;4589619670280652541&#45;&gt;&#45;2237771978995521399</title>
<path fill="none" stroke="black" d="M177.17,-286.19C194.78,-330.05 246.49,-438 328.78,-438 328.78,-438 328.78,-438 633.53,-438 673.5,-438 712.68,-411.86 737.7,-390.87"/>
<polygon fill="black" stroke="black" points="739.87,-393.62 745.11,-384.41 735.27,-388.34 739.87,-393.62"/>
<text xml:space="preserve" text-anchor="middle" x="480.03" y="-440.85" font-family="Times New Roman,serif" font-size="12.00">1</text>
</g>
<!-- 7328861634039501426 -->
<g id="node6" class="node">
<title>7328861634039501426</title>
<polygon fill="#ffffff" stroke="black" points="672.78,-297 592.28,-297 592.28,-261 672.78,-261 672.78,-297"/>
<text xml:space="preserve" text-anchor="middle" x="632.53" y="-274.73" font-family="Times New Roman,serif" font-size="12.00">Unknown (5)</text>
</g>
<!-- &#45;4589619670280652541&#45;&gt;7328861634039501426 -->
<g id="edge16" class="edge">
<title>&#45;4589619670280652541&#45;&gt;7328861634039501426</title>
<path fill="none" stroke="black" d="M195.22,-286.25C252.77,-326.25 399.63,-414.85 519.91,-373 556.66,-360.21 589.5,-328.93 609.89,-305.95"/>
<polygon fill="black" stroke="black" points="612.47,-308.31 616.34,-298.44 607.16,-303.74 612.47,-308.31"/>
<text xml:space="preserve" text-anchor="middle" x="410.16" y="-384.99" font-family="Times New Roman,serif" font-size="12.00">1</text>
</g>
<!-- 425264442371813289 -->
<g id="node2" class="node">
<title>425264442371813289</title>
<polygon fill="#a0a0ff" stroke="black" points="519.91,-332 440.16,-332 440.16,-296 519.91,-296 519.91,-332"/>
<text xml:space="preserve" text-anchor="middle" x="480.03" y="-309.73" font-family="Times New Roman,serif" font-size="12.00">New (36407)</text>
</g>
<!-- 425264442371813289&#45;&gt;&#45;4589619670280652541 -->
<g id="edge4" class="edge">
<title>425264442371813289&#45;&gt;&#45;4589619670280652541</title>
<path fill="none" stroke="black" stroke-width="1.51" d="M439.9,-319.84C426.63,-321.04 411.73,-321.53 398.16,-320 338.22,-313.24 271.07,-296.79 225.3,-284.19"/>
<polygon fill="black" stroke="black" stroke-width="1.51" points="226.34,-280.84 215.77,-281.52 224.46,-287.58 226.34,-280.84"/>
<text xml:space="preserve" text-anchor="middle" x="329.78" y="-320.16" font-family="Times New Roman,serif" font-size="12.00">7936</text>
</g>
<!-- 425264442371813289&#45;&gt;425264442371813289 -->
<g id="edge5" class="edge">
<title>425264442371813289&#45;&gt;425264442371813289</title>
<path fill="none" stroke="black" stroke-width="2.28" d="M467.39,-332.15C465.45,-341.54 469.66,-350 480.03,-350 484.89,-350 488.4,-348.14 490.56,-345.2"/>
<polygon fill="black" stroke="black" stroke-width="2.28" points="493.97,-346 492.12,-335.57 487.06,-344.88 493.97,-346"/>
<text xml:space="preserve" text-anchor="middle" x="480.03" y="-352.85" font-family="Times New Roman,serif" font-size="12.00">20009</text>
</g>
<!-- 425264442371813289&#45;&gt;&#45;6685622907924920562 -->
<g id="edge6" class="edge">
<title>425264442371813289&#45;&gt;&#45;6685622907924920562</title>
<path fill="none" stroke="black" stroke-width="1.41" d="M451.29,-295.58C442.13,-289.7 431.81,-283.28 422.16,-277.75 408.36,-269.85 393.07,-261.77 379.02,-254.6"/>
<polygon fill="black" stroke="black" stroke-width="1.41" points="380.96,-251.66 370.45,-250.28 377.8,-257.91 380.96,-251.66"/>
<text xml:space="preserve" text-anchor="middle" x="410.16" y="-280.6" font-family="Times New Roman,serif" font-size="12.00">6347</text>
</g>
<!-- 425264442371813289&#45;&gt;4590870561877669275 -->
<g id="edge7" class="edge">
<title>425264442371813289&#45;&gt;4590870561877669275</title>
<path fill="none" stroke="black" stroke-width="1.13" d="M503.89,-295.67C509.21,-291.27 514.81,-286.53 519.91,-282 542,-262.37 549.66,-259.24 567.91,-236 588.04,-210.35 606.14,-177.65 617.84,-154.59"/>
<polygon fill="black" stroke="black" stroke-width="1.13" points="620.96,-156.17 622.28,-145.65 614.69,-153.05 620.96,-156.17"/>
<text xml:space="preserve" text-anchor="middle" x="552.91" y="-269.11" font-family="Times New Roman,serif" font-size="12.00">2102</text>
</g>
<!-- 425264442371813289&#45;&gt;&#45;2237771978995521399 -->
<g id="edge17" class="edge">
<title>425264442371813289&#45;&gt;&#45;2237771978995521399</title>
<path fill="none" stroke="black" d="M520.15,-329.73C526.03,-331.72 532.08,-333.56 537.91,-335 595.54,-349.26 663.18,-357.09 709.54,-361.14"/>
<polygon fill="black" stroke="black" points="709.08,-364.62 719.34,-361.97 709.67,-357.64 709.08,-364.62"/>
<text xml:space="preserve" text-anchor="middle" x="632.53" y="-360.76" font-family="Times New Roman,serif" font-size="12.00">12</text>
</g>
<!-- 425264442371813289&#45;&gt;7328861634039501426 -->
<g id="edge18" class="edge">
<title>425264442371813289&#45;&gt;7328861634039501426</title>
<path fill="none" stroke="black" d="M520.03,-316.84C535.19,-316.97 552.56,-315.93 567.91,-312 576.29,-309.85 584.81,-306.44 592.78,-302.6"/>
<polygon fill="black" stroke="black" points="594.25,-305.78 601.53,-298.08 591.04,-299.56 594.25,-305.78"/>
<text xml:space="preserve" text-anchor="middle" x="552.91" y="-319.13" font-family="Times New Roman,serif" font-size="12.00">1</text>
</g>
<!-- &#45;6685622907924920562&#45;&gt;&#45;4589619670280652541 -->
<g id="edge8" class="edge">
<title>&#45;6685622907924920562&#45;&gt;&#45;4589619670280652541</title>
<path fill="none" stroke="black" stroke-width="1.02" d="M279.12,-242.6C261.82,-246.64 242.34,-251.2 224.69,-255.32"/>
<polygon fill="black" stroke="black" stroke-width="1.02" points="224.13,-251.86 215.19,-257.54 225.72,-258.67 224.13,-251.86"/>
<text xml:space="preserve" text-anchor="middle" x="246.41" y="-255.66" font-family="Times New Roman,serif" font-size="12.00">317</text>
</g>
<!-- &#45;6685622907924920562&#45;&gt;425264442371813289 -->
<g id="edge9" class="edge">
<title>&#45;6685622907924920562&#45;&gt;425264442371813289</title>
<path fill="none" stroke="black" d="M346.48,-249.27C359.14,-262.91 378.09,-281.02 398.16,-292 407.63,-297.18 418.41,-301.21 428.94,-304.32"/>
<polygon fill="black" stroke="black" points="427.73,-307.62 438.3,-306.84 429.55,-300.86 427.73,-307.62"/>
<text xml:space="preserve" text-anchor="middle" x="410.16" y="-304.76" font-family="Times New Roman,serif" font-size="12.00">1</text>
</g>
<!-- &#45;6685622907924920562&#45;&gt;&#45;6685622907924920562 -->
<g id="edge10" class="edge">
<title>&#45;6685622907924920562&#45;&gt;&#45;6685622907924920562</title>
<path fill="none" stroke="black" stroke-width="1.03" d="M315.24,-249.15C313,-258.54 317.85,-267 329.78,-267 336.49,-267 340.96,-264.32 343.19,-260.31"/>
<polygon fill="black" stroke="black" stroke-width="1.03" points="346.64,-261.01 344.17,-250.71 339.67,-260.3 346.64,-261.01"/>
<text xml:space="preserve" text-anchor="middle" x="329.78" y="-269.85" font-family="Times New Roman,serif" font-size="12.00">515</text>
</g>
<!-- &#45;6685622907924920562&#45;&gt;4590870561877669275 -->
<g id="edge11" class="edge">
<title>&#45;6685622907924920562&#45;&gt;4590870561877669275</title>
<path fill="none" stroke="black" d="M375.95,-212.51C383.35,-209.59 390.95,-206.67 398.16,-204 458.01,-181.87 527.46,-159.01 574.94,-143.81"/>
<polygon fill="black" stroke="black" points="575.72,-147.23 584.18,-140.86 573.59,-140.57 575.72,-147.23"/>
<text xml:space="preserve" text-anchor="middle" x="480.03" y="-191.67" font-family="Times New Roman,serif" font-size="12.00">2</text>
</g>
<!-- &#45;6685622907924920562&#45;&gt;&#45;2237771978995521399 -->
<g id="edge19" class="edge">
<title>&#45;6685622907924920562&#45;&gt;&#45;2237771978995521399</title>
<path fill="none" stroke="black" stroke-width="2.6" d="M380.41,-221.68C451.3,-210.97 583.51,-200.87 679.16,-252 712.75,-269.96 737.06,-307.47 751.03,-334.35"/>
<polygon fill="black" stroke="black" stroke-width="2.6" points="747.75,-335.61 755.32,-343.03 754.03,-332.52 747.75,-335.61"/>
<text xml:space="preserve" text-anchor="middle" x="552.91" y="-220.47" font-family="Times New Roman,serif" font-size="12.00">24916</text>
</g>
<!-- 4590870561877669275&#45;&gt;&#45;4589619670280652541 -->
<g id="edge12" class="edge">
<title>4590870561877669275&#45;&gt;&#45;4589619670280652541</title>
<path fill="none" stroke="black" stroke-width="1.08" d="M585.57,-120.36C546.6,-116.69 489.35,-113.93 440.16,-122 344.34,-137.73 248.16,-205.12 200.75,-242.6"/>
<polygon fill="black" stroke="black" stroke-width="1.08" points="198.82,-239.67 193.21,-248.65 203.2,-245.13 198.82,-239.67"/>
<text xml:space="preserve" text-anchor="middle" x="410.16" y="-134.3" font-family="Times New Roman,serif" font-size="12.00">1220</text>
</g>
<!-- 4590870561877669275&#45;&gt;&#45;6685622907924920562 -->
<g id="edge13" class="edge">
<title>4590870561877669275&#45;&gt;&#45;6685622907924920562</title>
<path fill="none" stroke="black" stroke-width="1.32" d="M585.73,-123.03C545.85,-122.1 487.2,-124.8 440.16,-143.75 407.18,-157.03 376.17,-183.64 355.64,-204"/>
<polygon fill="black" stroke="black" stroke-width="1.32" points="353.15,-201.54 348.65,-211.13 358.15,-206.44 353.15,-201.54"/>
<text xml:space="preserve" text-anchor="middle" x="480.03" y="-146.6" font-family="Times New Roman,serif" font-size="12.00">5020</text>
</g>
<!-- 4590870561877669275&#45;&gt;4590870561877669275 -->
<g id="edge14" class="edge">
<title>4590870561877669275&#45;&gt;4590870561877669275</title>
<path fill="none" stroke="black" stroke-width="1.62" d="M620.3,-144.15C618.42,-153.54 622.49,-162 632.53,-162 637.71,-162 641.3,-159.75 643.31,-156.28"/>
<polygon fill="black" stroke="black" stroke-width="1.62" points="646.75,-156.93 644.47,-146.58 639.8,-156.09 646.75,-156.93"/>
<text xml:space="preserve" text-anchor="middle" x="632.53" y="-164.85" font-family="Times New Roman,serif" font-size="12.00">9607</text>
</g>
<!-- 4590870561877669275&#45;&gt;&#45;2237771978995521399 -->
<g id="edge20" class="edge">
<title>4590870561877669275&#45;&gt;&#45;2237771978995521399</title>
<path fill="none" stroke="black" d="M659.33,-144.48C673.91,-156.06 691.5,-172.11 703.16,-189.75 733.74,-236.01 751.09,-299.16 759.19,-335.66"/>
<polygon fill="black" stroke="black" points="755.68,-335.99 761.19,-345.04 762.53,-334.53 755.68,-335.99"/>
<text xml:space="preserve" text-anchor="middle" x="700.16" y="-192.6" font-family="Times New Roman,serif" font-size="12.00">1</text>
</g>
<!-- &#45;2237771978995521399&#45;&gt;&#45;4589619670280652541 -->
<g id="edge21" class="edge">
<title>&#45;2237771978995521399&#45;&gt;&#45;4589619670280652541</title>
<path fill="none" stroke="black" d="M756.05,-383.41C738.11,-417.73 693.99,-488 633.53,-488 328.78,-488 328.78,-488 328.78,-488 273.33,-488 264.99,-454.12 231.41,-410 204.89,-375.17 187.4,-327.05 178.2,-296.74"/>
<polygon fill="black" stroke="black" points="181.66,-296.13 175.5,-287.51 174.94,-298.09 181.66,-296.13"/>
<text xml:space="preserve" text-anchor="middle" x="480.03" y="-490.85" font-family="Times New Roman,serif" font-size="12.00">12</text>
</g>
<!-- &#45;2237771978995521399&#45;&gt;&#45;2237771978995521399 -->
<g id="edge24" class="edge">
<title>&#45;2237771978995521399&#45;&gt;&#45;2237771978995521399</title>
<path fill="none" stroke="black" d="M754.01,-383.15C752.18,-392.54 756.15,-401 765.91,-401 771.4,-401 775.05,-398.32 776.88,-394.31"/>
<polygon fill="black" stroke="black" points="780.34,-394.92 777.68,-384.67 773.36,-394.34 780.34,-394.92"/>
<text xml:space="preserve" text-anchor="middle" x="765.91" y="-403.85" font-family="Times New Roman,serif" font-size="12.00">55</text>
</g>
<!-- @@endnode -->
<g id="node8" class="node">
<title>@@endnode</title>
<ellipse fill="none" stroke="black" cx="912.3" cy="-365" rx="31.64" ry="31.64"/>
<ellipse fill="none" stroke="black" cx="912.3" cy="-365" rx="35.64" ry="35.64"/>
<text xml:space="preserve" text-anchor="start" x="902.55" y="-352.98" font-family="Times New Roman,serif" font-size="32.00">■</text>
</g>
<!-- &#45;2237771978995521399&#45;&gt;@@endnode -->
<g id="edge29" class="edge">
<title>&#45;2237771978995521399&#45;&gt;@@endnode</title>
<path fill="none" stroke="black" stroke-width="2.6" d="M811.01,-365C827.39,-365 846.05,-365 862.8,-365"/>
<polygon fill="black" stroke="black" stroke-width="2.6" points="862.68,-368.5 872.68,-365 862.68,-361.5 862.68,-368.5"/>
<text xml:space="preserve" text-anchor="middle" x="843.66" y="-367.85" font-family="Times New Roman,serif" font-size="12.00">24918</text>
</g>
<!-- 7328861634039501426&#45;&gt;&#45;6685622907924920562 -->
<g id="edge22" class="edge">
<title>7328861634039501426&#45;&gt;&#45;6685622907924920562</title>
<path fill="none" stroke="black" d="M591.89,-272.67C540.77,-264.51 451.36,-250.24 391.61,-240.71"/>
<polygon fill="black" stroke="black" points="392.37,-237.28 381.94,-239.16 391.26,-244.2 392.37,-237.28"/>
<text xml:space="preserve" text-anchor="middle" x="480.03" y="-263.4" font-family="Times New Roman,serif" font-size="12.00">2</text>
</g>
<!-- 7328861634039501426&#45;&gt;7328861634039501426 -->
<g id="edge23" class="edge">
<title>7328861634039501426&#45;&gt;7328861634039501426</title>
<path fill="none" stroke="black" d="M620.3,-297.15C618.42,-306.54 622.49,-315 632.53,-315 638.18,-315 641.94,-312.32 643.81,-308.31"/>
<polygon fill="black" stroke="black" points="647.27,-308.92 644.64,-298.66 640.3,-308.33 647.27,-308.92"/>
<text xml:space="preserve" text-anchor="middle" x="632.53" y="-317.85" font-family="Times New Roman,serif" font-size="12.00">3</text>
</g>
<!-- @@startnode -->
<g id="node7" class="node">
<title>@@startnode</title>
<ellipse fill="none" stroke="black" cx="32.7" cy="-174" rx="32.7" ry="32.7"/>
<text xml:space="preserve" text-anchor="start" x="22.58" y="-160.82" font-family="Times New Roman,serif" font-size="34.00">●</text>
</g>
<!-- @@startnode&#45;&gt;&#45;4589619670280652541 -->
<g id="edge26" class="edge">
<title>@@startnode&#45;&gt;&#45;4589619670280652541</title>
<path fill="none" stroke="black" stroke-width="1.42" d="M60,-192.35C80.67,-206.78 109.69,-227.03 132.51,-242.95"/>
<polygon fill="black" stroke="black" stroke-width="1.42" points="130.22,-245.62 140.42,-248.47 134.22,-239.88 130.22,-245.62"/>
<text xml:space="preserve" text-anchor="middle" x="95.41" y="-226.67" font-family="Times New Roman,serif" font-size="12.00">6503</text>
</g>
<!-- @@startnode&#45;&gt;425264442371813289 -->
<g id="edge25" class="edge">
<title>@@startnode&#45;&gt;425264442371813289</title>
<path fill="none" stroke="black" stroke-width="2.05" d="M41.6,-205.88C60.61,-274.88 116.13,-437.05 231.41,-502 326.15,-555.38 425.13,-408.32 463,-343.23"/>
<polygon fill="black" stroke="black" stroke-width="2.05" points="465.9,-345.22 467.81,-334.8 459.82,-341.75 465.9,-345.22"/>
<text xml:space="preserve" text-anchor="middle" x="246.41" y="-515.02" font-family="Times New Roman,serif" font-size="12.00">16397</text>
</g>
<!-- @@startnode&#45;&gt;&#45;6685622907924920562 -->
<g id="edge27" class="edge">
<title>@@startnode&#45;&gt;&#45;6685622907924920562</title>
<path fill="none" stroke="black" stroke-width="1.12" d="M65.28,-180.1C113.5,-189.41 206.36,-207.35 267.96,-219.25"/>
<polygon fill="black" stroke="black" stroke-width="1.12" points="266.93,-222.62 277.42,-221.08 268.26,-215.74 266.93,-222.62"/>
<text xml:space="preserve" text-anchor="middle" x="169.41" y="-211.02" font-family="Times New Roman,serif" font-size="12.00">1819</text>
</g>
<!-- @@startnode&#45;&gt;4590870561877669275 -->
<g id="edge28" class="edge">
<title>@@startnode&#45;&gt;4590870561877669275</title>
<path fill="none" stroke="black" stroke-width="1.01" d="M42.34,-142.49C58.23,-92.35 97.16,0 168.41,0 168.41,0 168.41,0 481.03,0 541.87,0 591.06,-61.29 615.25,-98.38"/>
<polygon fill="black" stroke="black" stroke-width="1.01" points="612,-99.8 620.31,-106.38 617.92,-96.06 612,-99.8"/>
<text xml:space="preserve" text-anchor="middle" x="329.78" y="-2.85" font-family="Times New Roman,serif" font-size="12.00">199</text>
</g>
</g>
</svg>
